<svg width="93" height="36" viewBox="0 0 93 36" fill="none" xmlns="http://www.w3.org/2000/svg">
<path d="M46.7552 27.5622L43.2499 24.0574C43.0917 23.8992 42.8772 23.8113 42.6522 23.8113H42.0791C43.0495 22.5705 43.6261 21.0097 43.6261 19.3118C43.6261 15.2727 40.3528 12 36.313 12C32.2733 12 29 15.2727 29 19.3118C29 23.3508 32.2733 26.6236 36.313 26.6236C38.0112 26.6236 39.5723 26.0471 40.8134 25.0768V25.6498C40.8134 25.8748 40.9013 26.0892 41.0595 26.2474L44.5648 29.7522C44.8953 30.0826 45.4297 30.0826 45.7567 29.7522L46.7517 28.7573C47.0822 28.4269 47.0822 27.8926 46.7552 27.5622ZM36.313 23.8113C33.8273 23.8113 31.8127 21.8006 31.8127 19.3118C31.8127 16.8265 33.8238 14.8122 36.313 14.8122C38.7988 14.8122 40.8134 16.823 40.8134 19.3118C40.8134 21.7971 38.8023 23.8113 36.313 23.8113Z" fill="#011627"/>
<path d="M13.056 21.272C13.056 15.176 4.224 17.528 4.224 13.76C4.224 12.152 5.448 11.384 7.032 11.432C8.76 11.48 9.744 12.512 9.84 13.64H12.864C12.624 10.784 10.368 9.104 7.176 9.104C3.768 9.104 1.44 10.928 1.44 13.856C1.44 20 10.296 17.384 10.296 21.416C10.296 22.832 9.216 23.864 7.296 23.864C5.4 23.864 4.44 22.76 4.32 21.392H1.392C1.392 24.344 3.96 26.168 7.296 26.168C11.016 26.168 13.056 23.768 13.056 21.272ZM15.3724 19.376C15.3724 23.528 18.0604 26.216 21.8524 26.216C25.0924 26.216 27.2044 24.416 27.9484 21.824H24.9964C24.4924 23.192 23.4844 23.912 21.8524 23.912C19.6444 23.912 18.1804 22.28 18.1804 19.376C18.1804 16.496 19.6444 14.864 21.8524 14.864C23.4844 14.864 24.5404 15.68 24.9964 16.952H27.9484C27.2044 14.168 25.0924 12.56 21.8524 12.56C18.0604 12.56 15.3724 15.248 15.3724 19.376ZM43.275 19.376C43.275 15.224 40.299 12.56 36.531 12.56C32.763 12.56 29.787 15.224 29.787 19.376C29.787 23.528 32.643 26.216 36.411 26.216C40.203 26.216 43.275 23.528 43.275 19.376ZM32.571 19.376C32.571 16.376 34.419 14.936 36.483 14.936C38.523 14.936 40.467 16.376 40.467 19.376C40.467 22.376 38.451 23.84 36.411 23.84C34.347 23.84 32.571 22.376 32.571 19.376ZM57.9557 12.776H55.2197V20.144C55.2197 22.568 53.8997 23.816 51.8837 23.816C49.8917 23.816 48.5717 22.568 48.5717 20.144V12.776H45.8597V20.552C45.8597 24.248 48.2117 26.192 51.3077 26.192C52.8677 26.192 54.3557 25.544 55.2197 24.416V26H57.9557V12.776ZM61.9976 22.328C61.9976 25.016 63.4616 26 65.8136 26H67.9736V23.72H66.2936C65.1416 23.72 64.7576 23.312 64.7576 22.328V15.008H67.9736V12.776H64.7576V9.488H61.9976V12.776H60.4376V15.008H61.9976V22.328ZM76.0633 14.864C78.1033 14.864 79.7113 16.16 79.7593 18.2H72.4393C72.7273 16.112 74.2153 14.864 76.0633 14.864ZM82.2553 22.064H79.3033C78.7993 23.096 77.8633 23.912 76.1833 23.912C74.1673 23.912 72.6073 22.592 72.4153 20.408H82.5193C82.5913 19.952 82.6153 19.52 82.6153 19.064C82.6153 15.176 79.9513 12.56 76.1833 12.56C72.2713 12.56 69.5833 15.224 69.5833 19.376C69.5833 23.528 72.3913 26.216 76.1833 26.216C79.4233 26.216 81.5113 24.368 82.2553 22.064ZM88.0438 19.04C88.0438 16.232 89.2918 15.392 91.3078 15.392H92.0038V12.56C90.1318 12.56 88.8118 13.376 88.0438 14.696V12.776H85.3078V26H88.0438V19.04Z" fill="#011627"/>
</svg>
