<svg width="20" height="24" viewBox="0 0 20 24" fill="none" xmlns="http://www.w3.org/2000/svg">
<path d="M10 24C11.5768 24 12.8558 22.657 12.8558 21H7.14421C7.14421 22.657 8.42322 24 10 24ZM19.6156 16.9823C18.7531 16.0092 17.1393 14.5453 17.1393 9.75C17.1393 6.10781 14.7071 3.19219 11.4277 2.47688V1.5C11.4277 0.671719 10.7884 0 10 0C9.21161 0 8.57233 0.671719 8.57233 1.5V2.47688C5.29287 3.19219 2.86074 6.10781 2.86074 9.75C2.86074 14.5453 1.2469 16.0092 0.384405 16.9823C0.116548 17.2847 -0.00220127 17.6461 3.08655e-05 18C0.00494156 18.7687 0.579493 19.5 1.43306 19.5H18.5669C19.4205 19.5 19.9955 18.7687 20 18C20.0022 17.6461 19.8835 17.2842 19.6156 16.9823V16.9823Z" fill="black"/>
</svg>
